<svg width="25" height="25" viewBox="0 0 25 25" fill="none" xmlns="http://www.w3.org/2000/svg">
<path d="M16.1312 4.5C15.1462 4.17555 14.0936 4 13 4C7.47715 4 3 8.47715 3 14C3 19.5228 7.47715 24 13 24C18.5228 24 23 19.5228 23 14C23 12.9548 22.8396 11.947 22.5422 11" stroke="url(#paint0_linear_594_4578)" stroke-width="1.5" stroke-linecap="round"/>
<path d="M18 14C18 16.7614 15.7614 19 13 19C10.2386 19 8 16.7614 8 14C8 11.2386 10.2386 9 13 9" stroke="url(#paint1_linear_594_4578)" stroke-width="1.5" stroke-linecap="round" stroke-linejoin="round"/>
<path d="M20.5 6.5L13 14M20.5 6.5V4M20.5 6.5H23" stroke="url(#paint2_linear_594_4578)" stroke-width="1.5" stroke-linecap="round"/>
<defs>
<linearGradient id="paint0_linear_594_4578" x1="13" y1="4" x2="13" y2="24" gradientUnits="userSpaceOnUse">
<stop stop-color="white"/>
<stop offset="1" stop-color="#A9B8C4"/>
</linearGradient>
<linearGradient id="paint1_linear_594_4578" x1="13" y1="9" x2="13" y2="19" gradientUnits="userSpaceOnUse">
<stop stop-color="white"/>
<stop offset="1" stop-color="#A9B8C4"/>
</linearGradient>
<linearGradient id="paint2_linear_594_4578" x1="18" y1="4" x2="18" y2="14" gradientUnits="userSpaceOnUse">
<stop stop-color="white"/>
<stop offset="1" stop-color="#A9B8C4"/>
</linearGradient>
</defs>
</svg>
